<svg width="20" height="21" viewBox="0 0 20 21" fill="none" xmlns="http://www.w3.org/2000/svg">
<path fill-rule="evenodd" clip-rule="evenodd" d="M11.5693 2.30402C11.1133 0.432024 8.44928 0.432024 7.99328 2.30402C7.9252 2.58532 7.79167 2.84657 7.60355 3.06652C7.41543 3.28646 7.17804 3.45888 6.91069 3.56975C6.64335 3.68062 6.35361 3.7268 6.06504 3.70453C5.77648 3.68227 5.49725 3.59219 5.25008 3.44162C3.60368 2.43842 1.71968 4.32242 2.72288 5.96882C3.37088 7.03202 2.79608 8.41922 1.58648 8.71322C-0.28672 9.16802 -0.28672 11.8332 1.58648 12.2868C1.86785 12.355 2.12915 12.4886 2.34909 12.6769C2.56904 12.8652 2.74141 13.1027 2.85217 13.3702C2.96293 13.6377 3.00895 13.9276 2.98648 14.2162C2.96402 14.5048 2.8737 14.7841 2.72288 15.0312C1.71968 16.6776 3.60368 18.5616 5.25008 17.5584C5.49721 17.4076 5.77646 17.3173 6.0651 17.2948C6.35374 17.2724 6.64361 17.3184 6.9111 17.4291C7.17858 17.5399 7.41613 17.7123 7.60439 17.9322C7.79266 18.1522 7.92631 18.4135 7.99448 18.6948C8.44928 20.568 11.1145 20.568 11.5681 18.6948C11.6365 18.4136 11.7703 18.1525 11.9586 17.9327C12.1469 17.7129 12.3844 17.5406 12.6518 17.4299C12.9192 17.3192 13.2089 17.2731 13.4975 17.2954C13.7861 17.3178 14.0653 17.4079 14.3125 17.5584C15.9589 18.5616 17.8429 16.6776 16.8397 15.0312C16.6891 14.784 16.599 14.5048 16.5767 14.2163C16.5544 13.9277 16.6004 13.6379 16.7112 13.3705C16.8219 13.1031 16.9942 12.8656 17.2139 12.6773C17.4337 12.489 17.6949 12.3552 17.9761 12.2868C19.8493 11.832 19.8493 9.16682 17.9761 8.71322C17.6947 8.64506 17.4334 8.5114 17.2135 8.32314C16.9935 8.13488 16.8212 7.89733 16.7104 7.62984C16.5996 7.36235 16.5536 7.07249 16.5761 6.78385C16.5985 6.49521 16.6889 6.21595 16.8397 5.96882C17.8429 4.32242 15.9589 2.43842 14.3125 3.44162C14.0654 3.59244 13.7861 3.68276 13.4975 3.70523C13.2088 3.72769 12.919 3.68167 12.6515 3.57091C12.384 3.46015 12.1464 3.28778 11.9582 3.06784C11.7699 2.8479 11.6362 2.5866 11.5681 2.30522L11.5693 2.30402ZM9.78128 14.1C10.7361 14.1 11.6517 13.7207 12.3269 13.0456C13.002 12.3705 13.3813 11.4548 13.3813 10.5C13.3813 9.54525 13.002 8.62957 12.3269 7.95444C11.6517 7.27931 10.7361 6.90002 9.78128 6.90002C8.8265 6.90002 7.91083 7.27931 7.2357 7.95444C6.56056 8.62957 6.18128 9.54525 6.18128 10.5C6.18128 11.4548 6.56056 12.3705 7.2357 13.0456C7.91083 13.7207 8.8265 14.1 9.78128 14.1V14.1Z" fill="white"/>
</svg>
