<svg width="18" height="18" viewBox="0 0 18 18" fill="none" xmlns="http://www.w3.org/2000/svg">
<path d="M2.21191 5.5H15.7119V17.0781C15.7119 17.3143 15.623 17.5409 15.4648 17.7079C15.3066 17.8749 15.0919 17.9688 14.8682 17.9688H3.05566C2.83189 17.9688 2.61728 17.8749 2.45904 17.7079C2.30081 17.5409 2.21191 17.3143 2.21191 17.0781V5.5ZM4.74316 2.82812V1.04688C4.74316 0.810667 4.83206 0.584133 4.99029 0.417108C5.14853 0.250083 5.36314 0.15625 5.58691 0.15625H12.3369C12.5607 0.15625 12.7753 0.250083 12.9335 0.417108C13.0918 0.584133 13.1807 0.810667 13.1807 1.04688V2.82812H17.3994V4.60938H0.524414V2.82812H4.74316ZM6.43066 1.9375V2.82812H11.4932V1.9375H6.43066ZM6.43066 9.0625V14.4062H8.11817V9.0625H6.43066ZM9.80567 9.0625V14.4062H11.4932V9.0625H9.80567Z" fill="white"/>
</svg>
